<svg width="48" height="48" viewBox="0 0 48 48" fill="none" xmlns="http://www.w3.org/2000/svg">
<path d="M24 42.0001L21.1 39.4001C17.7333 36.3667 14.95 33.7501 12.75 31.5501C10.55 29.3501 8.8 27.3834 7.5 25.6501C6.2 23.8834 5.28333 22.2667 4.75 20.8C4.25 19.3334 4 17.8334 4 16.3C4 13.1667 5.05 10.55 7.15 8.45005C9.25 6.35005 11.8667 5.30005 15 5.30005C16.7333 5.30005 18.3833 5.66672 19.95 6.40005C21.5167 7.13338 22.8667 8.16672 24 9.50005C25.1333 8.16672 26.4833 7.13338 28.05 6.40005C29.6167 5.66672 31.2667 5.30005 33 5.30005C36.1333 5.30005 38.75 6.35005 40.85 8.45005C42.95 10.55 44 13.1667 44 16.3C44 17.8334 43.7333 19.3334 43.2 20.8C42.7 22.2667 41.8 23.8834 40.5 25.6501C39.2 27.3834 37.45 29.3501 35.25 31.5501C33.05 33.7501 30.2667 36.3667 26.9 39.4001L24 42.0001ZM24 36.6001C27.2 33.7334 29.8333 31.2834 31.9 29.25C33.9667 27.1834 35.6 25.4001 36.8 23.9001C38 22.3667 38.8333 21.0167 39.3 19.8501C39.7667 18.6501 40 17.4667 40 16.3C40 14.3 39.3333 12.6334 38 11.3001C36.6667 9.96672 35 9.30005 33 9.30005C31.4333 9.30005 29.9833 9.75005 28.65 10.6501C27.3167 11.5167 26.4 12.6334 25.9 14.0001H22.1C21.6 12.6334 20.6833 11.5167 19.35 10.6501C18.0167 9.75005 16.5667 9.30005 15 9.30005C13 9.30005 11.3333 9.96672 10 11.3001C8.66667 12.6334 8 14.3 8 16.3C8 17.4667 8.23333 18.6501 8.7 19.8501C9.16667 21.0167 10 22.3667 11.2 23.9001C12.4 25.4001 14.0333 27.1834 16.1 29.25C18.1667 31.2834 20.8 33.7334 24 36.6001Z" fill="#E1E8ED"/>
</svg>
