<svg width="49" height="49" viewBox="0 0 49 49" fill="none" xmlns="http://www.w3.org/2000/svg">
<path d="M0 40.8334V35.1677C0 34.0108 0.289236 32.9389 0.867708 31.9521C1.44618 30.9653 2.24583 30.2167 3.26667 29.7063C3.74306 29.4681 4.20243 29.2469 4.64479 29.0427C5.12118 28.8386 5.61458 28.6514 6.125 28.4813V40.8334H0ZM8.16667 26.5417C6.46528 26.5417 5.0191 25.9462 3.82813 24.7552C2.63715 23.5643 2.04167 22.1181 2.04167 20.4167C2.04167 18.7153 2.63715 17.2691 3.82813 16.0781C5.0191 14.8872 6.46528 14.2917 8.16667 14.2917C9.86806 14.2917 11.3142 14.8872 12.5052 16.0781C13.6962 17.2691 14.2917 18.7153 14.2917 20.4167C14.2917 22.1181 13.6962 23.5643 12.5052 24.7552C11.3142 25.9462 9.86806 26.5417 8.16667 26.5417ZM8.16667 22.4584C8.74514 22.4584 9.22153 22.2712 9.59583 21.8969C10.0042 21.4886 10.2083 20.9952 10.2083 20.4167C10.2083 19.8382 10.0042 19.3618 9.59583 18.9875C9.22153 18.5792 8.74514 18.375 8.16667 18.375C7.58819 18.375 7.09479 18.5792 6.68646 18.9875C6.31215 19.3618 6.125 19.8382 6.125 20.4167C6.125 20.9952 6.31215 21.4886 6.68646 21.8969C7.09479 22.2712 7.58819 22.4584 8.16667 22.4584ZM8.16667 40.8334V35.1167C8.16667 33.9597 8.4559 32.9049 9.03438 31.9521C9.64688 30.9653 10.4465 30.2167 11.4333 29.7063C13.5431 28.6514 15.6868 27.8688 17.8646 27.3584C20.0424 26.8139 22.2542 26.5417 24.5 26.5417C26.7458 26.5417 28.9576 26.8139 31.1354 27.3584C33.3132 27.8688 35.4569 28.6514 37.5667 29.7063C38.5535 30.2167 39.3361 30.9653 39.9146 31.9521C40.5271 32.9049 40.8333 33.9597 40.8333 35.1167V40.8334H8.16667ZM12.25 36.75H36.75V35.1167C36.75 34.7424 36.6479 34.4021 36.4438 34.0959C36.2736 33.7896 36.0354 33.5514 35.7292 33.3813C33.8917 32.4625 32.0372 31.782 30.1656 31.3396C28.2941 30.8632 26.4056 30.625 24.5 30.625C22.5944 30.625 20.7059 30.8632 18.8344 31.3396C16.9628 31.782 15.1083 32.4625 13.2708 33.3813C12.9646 33.5514 12.7094 33.7896 12.5052 34.0959C12.3351 34.4021 12.25 34.7424 12.25 35.1167V36.75ZM24.5 24.5C22.2542 24.5 20.3316 23.7004 18.7323 22.1011C17.133 20.5018 16.3333 18.5792 16.3333 16.3334C16.3333 14.0875 17.133 12.165 18.7323 10.5656C20.3316 8.96634 22.2542 8.16669 24.5 8.16669C26.7458 8.16669 28.6684 8.96634 30.2677 10.5656C31.867 12.165 32.6667 14.0875 32.6667 16.3334C32.6667 18.5792 31.867 20.5018 30.2677 22.1011C28.6684 23.7004 26.7458 24.5 24.5 24.5ZM24.5 20.4167C25.6229 20.4167 26.5757 20.0254 27.3583 19.2427C28.175 18.4261 28.5833 17.4563 28.5833 16.3334C28.5833 15.2104 28.175 14.2577 27.3583 13.475C26.5757 12.6584 25.6229 12.25 24.5 12.25C23.3771 12.25 22.4073 12.6584 21.5906 13.475C20.808 14.2577 20.4167 15.2104 20.4167 16.3334C20.4167 17.4563 20.808 18.4261 21.5906 19.2427C22.4073 20.0254 23.3771 20.4167 24.5 20.4167ZM40.8333 26.5417C39.1319 26.5417 37.6858 25.9462 36.4948 24.7552C35.3038 23.5643 34.7083 22.1181 34.7083 20.4167C34.7083 18.7153 35.3038 17.2691 36.4948 16.0781C37.6858 14.8872 39.1319 14.2917 40.8333 14.2917C42.5347 14.2917 43.9809 14.8872 45.1719 16.0781C46.3629 17.2691 46.9583 18.7153 46.9583 20.4167C46.9583 22.1181 46.3629 23.5643 45.1719 24.7552C43.9809 25.9462 42.5347 26.5417 40.8333 26.5417ZM40.8333 22.4584C41.4118 22.4584 41.8882 22.2712 42.2625 21.8969C42.6708 21.4886 42.875 20.9952 42.875 20.4167C42.875 19.8382 42.6708 19.3618 42.2625 18.9875C41.8882 18.5792 41.4118 18.375 40.8333 18.375C40.2549 18.375 39.7615 18.5792 39.3531 18.9875C38.9788 19.3618 38.7917 19.8382 38.7917 20.4167C38.7917 20.9952 38.9788 21.4886 39.3531 21.8969C39.7615 22.2712 40.2549 22.4584 40.8333 22.4584ZM42.875 40.8334V28.4813C43.3854 28.6514 43.8618 28.8386 44.3042 29.0427C44.7806 29.2469 45.257 29.4681 45.7333 29.7063C46.7542 30.2167 47.5538 30.9653 48.1323 31.9521C48.7108 32.9389 49 34.0108 49 35.1677V40.8334H42.875Z" fill="#ECE6F0"/>
</svg>
