<svg width="113" height="113" viewBox="0 0 113 113" fill="none" xmlns="http://www.w3.org/2000/svg">
<rect width="113" height="113" rx="56.5" fill="#EADDFF"/>
<path fill-rule="evenodd" clip-rule="evenodd" d="M73.4507 45.2C73.4507 54.5612 65.8619 62.15 56.5007 62.15C47.1395 62.15 39.5507 54.5612 39.5507 45.2C39.5507 35.8388 47.1395 28.25 56.5007 28.25C65.8619 28.25 73.4507 35.8388 73.4507 45.2ZM67.8007 45.2C67.8007 51.4408 62.7415 56.5 56.5007 56.5C50.2599 56.5 45.2007 51.4408 45.2007 45.2C45.2007 38.9592 50.2599 33.9 56.5007 33.9C62.7415 33.9 67.8007 38.9592 67.8007 45.2Z" fill="#21005D"/>
<path d="M56.5007 70.625C38.2106 70.625 22.6269 81.4403 16.6907 96.5925C18.1368 98.0285 19.6601 99.3868 21.254 100.661C25.6744 86.7492 39.5414 76.275 56.5007 76.275C73.46 76.275 87.327 86.7492 91.7474 100.661C93.3413 99.3868 94.8646 98.0285 96.3107 96.5926C90.3745 81.4403 74.7909 70.625 56.5007 70.625Z" fill="#21005D"/>
</svg>
