<svg width="48" height="48" viewBox="0 0 48 48" fill="none" xmlns="http://www.w3.org/2000/svg">
<rect width="48" height="48" fill="#191B1C"/>
<path d="M44 24H32L28 30H20L16 24H4M44 24V36C44 37.0609 43.5786 38.0783 42.8284 38.8284C42.0783 39.5786 41.0609 40 40 40H8C6.93913 40 5.92172 39.5786 5.17157 38.8284C4.42143 38.0783 4 37.0609 4 36V24M44 24L37.1 10.22C36.7688 9.55357 36.2584 8.99274 35.6259 8.60056C34.9935 8.20838 34.2642 8.00039 33.52 8H14.48C13.7358 8.00039 13.0065 8.20838 12.3741 8.60056C11.7417 8.99274 11.2312 9.55357 10.9 10.22L4 24" stroke="#ECE6F0" stroke-width="4" stroke-linecap="round" stroke-linejoin="round"/>
</svg>
